<svg xmlns="http://www.w3.org/2000/svg" xmlns:xlink="http://www.w3.org/1999/xlink" viewBox="0 0 224.02 254.03"><defs><style>.cls-1{fill:#4244f7;}.cls-2{fill:url(#未命名的渐变_109);}</style><linearGradient id="未命名的渐变_109" x1="230.26" y1="167.02" x2="-6.24" y2="87.01" gradientUnits="userSpaceOnUse"><stop offset="0" stop-color="#dbfcdc"/><stop offset="0.98" stop-color="#4244f7"/></linearGradient></defs><title>资源 28</title><g id="图层_2" data-name="图层 2"><g id="图层_1-2" data-name="图层 1"><path class="cls-1" d="M200.45,138.18a22.32,22.32,0,0,1,0-22.33L222,78.51a15,15,0,0,0-26-15h0a22.34,22.34,0,0,1-38.69,0L125,7.5a15,15,0,0,0-26,15l14.6,25.28C124,65.7,106.5,86.83,87,80.06l-67-23.22a15,15,0,0,0-9.82,28.34l59.83,20.73c20,6.94,20,35.27,0,42.21L10.09,168.85a15,15,0,1,0,9.82,28.35L87,174c19.54-6.77,37,14.37,26.66,32.28L99,231.53a15,15,0,1,0,26,15l32.33-56a22.34,22.34,0,0,1,38.69,0h0a15,15,0,0,0,26-15Z"/><path class="cls-2" d="M213.92,168.85l-86.73-30c-11.19-3.87-11.19-19.7,0-23.57l86.73-30a15,15,0,1,0-9.81-28.34L112.06,88.72a12.47,12.47,0,0,1-14.88-18L125,22.5a15,15,0,1,0-26-15L58.14,78.31a12.47,12.47,0,0,1-21.6,0L28,63.51a15,15,0,0,0-26,15l24.41,42.27a12.46,12.46,0,0,1,0,12.47L2,175.52a15,15,0,1,0,26,15l8.55-14.79a12.47,12.47,0,0,1,21.6,0L99,246.53a15,15,0,1,0,26-15l-27.83-48.2a12.48,12.48,0,0,1,14.89-18l92,31.89a15,15,0,1,0,9.82-28.35Z"/></g></g></svg>