<svg width="13" height="16" viewBox="0 0 13 16" fill="none" xmlns="http://www.w3.org/2000/svg">
    <path d="M8.85564 2.55835C8.3196 3.20825 7.41238 3.6931 6.69071 3.6931C6.60825 3.6931 6.52579 3.68279 6.47425 3.67247C6.46389 3.63121 6.44326 3.50741 6.44326 3.38363C6.44326 2.55835 6.86599 1.73307 7.31956 1.21728C7.89687 0.536428 8.86599 0.0309478 9.67004 0C9.69068 0.0928434 9.70103 0.206318 9.70103 0.319794C9.70103 1.14507 9.35048 1.96002 8.85564 2.55835ZM9.42266 3.86847C9.87623 3.86847 11.5154 3.90974 12.5876 5.45713C12.4948 5.52933 10.8659 6.44745 10.8659 8.50034C10.8659 10.873 12.9381 11.7189 13 11.7395C12.9896 11.7911 12.6701 12.8846 11.9071 14.009C11.2267 14.989 10.5052 15.9794 9.42266 15.9794C8.32988 15.9794 8.05151 15.3398 6.80409 15.3398C5.5773 15.3398 5.14429 16 4.15463 16C3.15463 16 2.46391 15.0819 1.6701 13.9678C0.74227 12.6473 0 10.6048 0 8.66537C0 5.56028 2.02061 3.90974 4.01029 3.90974C5.06183 3.90974 5.93814 4.6009 6.60825 4.6009C7.2371 4.6009 8.21651 3.86847 9.42266 3.86847Z" fill="black"/>
</svg>
