<svg width="14" height="16" viewBox="0 0 14 16" fill="none" xmlns="http://www.w3.org/2000/svg">
    <path d="M6.75072 3.90954C6.75072 3.96252 6.69617 3.96252 6.69617 3.96252H6.64163C6.58708 3.96252 6.58708 3.90955 6.53253 3.85657C6.53253 3.85657 6.47799 3.8036 6.47799 3.75062C6.47799 3.69765 6.47799 3.69765 6.53253 3.69765L6.64163 3.75062C6.69617 3.8036 6.75072 3.85657 6.75072 3.90954ZM5.76888 3.3798C5.76888 3.11492 5.65978 2.956 5.49614 2.956C5.49614 2.956 5.49614 3.00897 5.4416 3.00897V3.11492H5.60524C5.60524 3.22087 5.65978 3.27385 5.65978 3.3798H5.76888ZM7.67802 3.11492C7.78711 3.11492 7.84166 3.22087 7.8962 3.3798H8.0053C7.95075 3.32682 7.95075 3.27385 7.95075 3.22087C7.95075 3.1679 7.95075 3.11492 7.8962 3.06195C7.84166 3.00897 7.78711 2.956 7.73256 2.956C7.73256 2.956 7.67802 3.00897 7.62347 3.00897C7.62347 3.06195 7.67802 3.06195 7.67802 3.11492ZM6.04161 3.96252C5.98706 3.96252 5.98706 3.96252 5.98706 3.90954C5.98706 3.85657 5.98706 3.8036 6.04161 3.75062C6.15071 3.75062 6.20525 3.69765 6.20525 3.69765C6.2598 3.69765 6.2598 3.75062 6.2598 3.75062C6.2598 3.8036 6.20525 3.85657 6.09616 3.96252H6.04161ZM5.4416 3.90954C5.22341 3.8036 5.16886 3.64467 5.16886 3.3798C5.16886 3.22087 5.16886 3.11492 5.27796 3.00897C5.3325 2.90302 5.4416 2.85005 5.55069 2.85005C5.65978 2.85005 5.71433 2.90302 5.82342 3.00897C5.87797 3.1679 5.93252 3.32682 5.93252 3.48575V3.5917H5.98706V3.53872C6.04161 3.53872 6.04161 3.43277 6.04161 3.22087C6.04161 3.06195 6.04161 2.90302 5.93252 2.7441C5.82342 2.58517 5.71433 2.47922 5.49614 2.47922C5.3325 2.47922 5.16886 2.58517 5.11431 2.7441C5.00522 2.956 4.9834 3.11492 4.9834 3.3798C4.9834 3.5917 5.05977 3.8036 5.27796 4.01549C5.3325 3.96252 5.38705 3.96252 5.4416 3.90954ZM12.26 11.379C12.3145 11.379 12.3145 11.3578 12.3145 11.3101C12.3145 11.1936 12.26 11.0559 12.0963 10.9022C11.9327 10.7433 11.6599 10.6427 11.3327 10.6003C11.2781 10.595 11.2236 10.595 11.2236 10.595C11.169 10.5844 11.169 10.5844 11.1145 10.5844C11.0599 10.5791 10.9508 10.5685 10.8963 10.5579C11.0599 10.0652 11.1145 9.63083 11.1145 9.24941C11.1145 8.71966 11.0054 8.34884 10.7872 8.03099C10.569 7.71314 10.3508 7.55422 10.0781 7.50124C10.0235 7.55422 10.0235 7.55422 10.0235 7.60719C10.2963 7.71314 10.569 7.92504 10.7326 8.24289C10.8963 8.61371 10.9508 8.93156 10.9508 9.30239C10.9508 9.59905 10.8963 10.0387 10.6781 10.6003C10.4599 10.685 10.2417 10.881 10.0781 11.1883C10.0781 11.236 10.0781 11.2625 10.1326 11.2625C10.1326 11.2625 10.1872 11.2148 10.2417 11.1247C10.3508 11.0347 10.4054 10.9446 10.5145 10.8546C10.6781 10.7645 10.7872 10.7168 10.9508 10.7168C11.2236 10.7168 11.4963 10.7539 11.6599 10.8281C11.8781 10.8969 11.9872 10.9711 12.0418 11.0559C12.0963 11.1353 12.1509 11.2095 12.2054 11.2783C12.2054 11.3472 12.26 11.379 12.26 11.379ZM7.24164 3.69765C7.1871 3.64467 7.1871 3.53872 7.1871 3.43277C7.1871 3.22087 7.1871 3.11492 7.29619 2.956C7.40528 2.85005 7.51438 2.79707 7.62347 2.79707C7.78711 2.79707 7.8962 2.90302 8.0053 3.00897C8.05985 3.1679 8.11439 3.27385 8.11439 3.43277C8.11439 3.69765 8.0053 3.85657 7.78711 3.90954C7.78711 3.90954 7.84166 3.96252 7.8962 3.96252C8.0053 3.96252 8.05984 4.01549 8.16894 4.06847C8.22349 3.75062 8.27803 3.53872 8.27803 3.27385C8.27803 2.956 8.22349 2.7441 8.11439 2.58517C7.95075 2.42625 7.78711 2.37327 7.56892 2.37327C7.40528 2.37327 7.24164 2.42625 7.078 2.5322C6.96891 2.69112 6.91436 2.79707 6.91436 2.956C6.91436 3.22087 6.96891 3.43277 7.078 3.64467C7.13255 3.64467 7.1871 3.69765 7.24164 3.69765ZM7.8962 4.54524C7.1871 5.02202 6.64163 5.23392 6.20525 5.23392C5.82342 5.23392 5.4416 5.07499 5.11431 4.81012C5.16886 4.91607 5.22341 5.02202 5.27796 5.07499L5.60524 5.39284C5.82342 5.60474 6.09616 5.71069 6.36889 5.71069C6.75072 5.71069 7.1871 5.49879 7.73256 5.12797L8.22349 4.81012C8.33258 4.70417 8.44167 4.59822 8.44167 4.43929C8.44167 4.38632 8.44167 4.33334 8.38713 4.33334C8.33258 4.22739 8.05985 4.06847 7.51438 3.90954C7.02345 3.69765 6.64163 3.5917 6.42344 3.5917C6.2598 3.5917 5.98706 3.69765 5.60524 3.90954C5.27796 4.12144 5.05977 4.33334 5.05977 4.54524C5.05977 4.54524 5.11431 4.59822 5.16886 4.70417C5.49614 4.96904 5.82342 5.12797 6.15071 5.12797C6.58708 5.12797 7.13255 4.91607 7.84166 4.38632V4.49227C7.8962 4.49227 7.8962 4.54524 7.8962 4.54524ZM9.15078 15.2462C9.36897 15.6445 9.7508 15.8448 10.1872 15.8448C10.2963 15.8448 10.4054 15.8289 10.5145 15.7971C10.6235 15.7759 10.7326 15.7388 10.7872 15.6965C10.8417 15.6594 10.8963 15.6223 10.9508 15.5799C11.0599 15.5428 11.0599 15.5163 11.1145 15.4899L12.0418 14.7111C12.26 14.5421 12.4781 14.3943 12.7509 14.2661C12.9691 14.139 13.1873 14.0542 13.2963 14.0066C13.46 13.9642 13.5691 13.9006 13.6782 13.8158C13.7327 13.7364 13.7873 13.6357 13.7873 13.5086C13.7873 13.355 13.6782 13.2384 13.5691 13.1537C13.46 13.0689 13.3509 13.0106 13.2418 12.9735C13.1327 12.9365 13.0236 12.8517 12.86 12.7087C12.7509 12.5709 12.6418 12.3802 12.5872 12.1312L12.5327 11.824C12.4781 11.681 12.4781 11.575 12.4236 11.5167C12.4236 11.5008 12.4236 11.4955 12.369 11.4955C12.3145 11.4955 12.2054 11.5432 12.1509 11.6333C12.0418 11.7233 11.9327 11.824 11.8236 11.9299C11.769 12.0359 11.6054 12.1312 11.4963 12.2213C11.3327 12.3114 11.169 12.359 11.0599 12.359C10.6235 12.359 10.4054 12.2425 10.2417 12.0147C10.1326 11.8452 10.0781 11.6492 10.0235 11.4267C9.91444 11.3366 9.85989 11.2889 9.7508 11.2889C9.47806 11.2889 9.36897 11.5644 9.36897 12.1207V13.7682C9.36897 13.8158 9.31442 13.9218 9.31442 14.086C9.25988 14.2502 9.25988 14.4367 9.25988 14.6476L9.15078 15.2356V15.2446M1.24149 14.9643C1.74877 15.0364 2.33242 15.1905 2.99244 15.4258C3.65246 15.6588 4.05611 15.7807 4.20338 15.7807C4.58521 15.7807 4.90158 15.6165 5.16341 15.2991C5.21795 15.1964 5.21795 15.0756 5.21795 14.9368C5.21795 14.4362 4.90704 13.8031 4.2852 13.035L3.91428 12.5529C3.83792 12.4523 3.74519 12.2986 3.62519 12.092C3.51064 11.8854 3.407 11.7265 3.32518 11.6153C3.25427 11.4934 3.13972 11.3716 2.99244 11.2497C2.85062 11.1279 2.68698 11.0484 2.50697 11.0061C2.27788 11.0484 2.11969 11.1226 2.04333 11.2233C1.96696 11.3239 1.92332 11.4352 1.91241 11.5517C1.89605 11.6629 1.86332 11.7371 1.80877 11.7742C1.75423 11.806 1.6615 11.8325 1.53604 11.859C1.50877 11.859 1.45967 11.859 1.38876 11.8643H1.24149C0.952388 11.8643 0.75602 11.896 0.652381 11.949C0.516013 12.1026 0.445102 12.2775 0.445102 12.4629C0.445102 12.5476 0.466921 12.6907 0.510559 12.892C0.554196 13.088 0.576015 13.2469 0.576015 13.3581C0.576015 13.5753 0.510559 13.7925 0.374192 14.0097C0.237824 14.2375 0.166913 14.407 0.166913 14.5278C0.22146 14.7334 0.58147 14.878 1.24149 14.9628M3.0579 10.1473C3.0579 9.78181 3.15608 9.3792 3.35791 8.90243C3.55427 8.42565 3.75064 8.1078 3.94156 7.8959C3.93065 7.84293 3.90337 7.84293 3.85974 7.84293L3.80519 7.78995C3.647 7.94888 3.45609 8.3197 3.22699 8.84945C2.9979 9.32623 2.87789 9.76592 2.87789 10.0891C2.87789 10.3275 2.93789 10.5341 3.04699 10.7142C3.16699 10.889 3.45609 11.1433 3.91428 11.4664L4.49248 11.8319C5.10886 12.3511 5.43614 12.7113 5.43614 12.9232C5.43614 13.0345 5.38159 13.1457 5.21795 13.2676C5.10886 13.3947 4.96158 13.4583 4.83613 13.4583C4.82522 13.4583 4.81976 13.4689 4.81976 13.4953C4.81976 13.5006 4.87431 13.6066 4.98886 13.8132C5.21795 14.1152 5.70888 14.2635 6.36344 14.2635C7.56347 14.2635 8.49077 13.7867 9.19987 12.8332C9.19987 12.5683 9.19987 12.4041 9.14533 12.3352V12.1392C9.14533 11.7949 9.19987 11.5353 9.30897 11.3658C9.41806 11.1962 9.52716 11.1168 9.6908 11.1168C9.79989 11.1168 9.90898 11.1539 10.0181 11.2333C10.0726 10.8254 10.0726 10.4705 10.0726 10.1526C10.0726 9.67056 10.0726 9.27325 9.96353 8.90243C9.90898 8.58458 9.79989 8.3197 9.6908 8.1078L9.36351 7.63103C9.25442 7.47211 9.19987 7.31318 9.09078 7.15426C9.03623 6.94236 8.98169 6.78343 8.98169 6.51856C8.81805 6.25368 8.70895 5.98881 8.54531 5.72393C8.43622 5.45906 8.32712 5.19419 8.21803 4.98229L7.72711 5.35311C7.18164 5.72393 6.74527 5.88286 6.36344 5.88286C6.03616 5.88286 5.76342 5.82988 5.59978 5.61798L5.2725 5.35311C5.2725 5.51203 5.21795 5.72393 5.10886 5.93583L4.76521 6.57153C4.61248 6.94236 4.53066 7.15426 4.5143 7.31318C4.49248 7.41913 4.47612 7.52508 4.46521 7.52508L4.05611 8.3197C3.61428 9.11433 3.39063 9.85068 3.39063 10.4599C3.39063 10.5817 3.40154 10.7089 3.42336 10.836C3.1779 10.6718 3.0579 10.444 3.0579 10.1473ZM6.96345 15.1588C6.25434 15.1588 5.70888 15.252 5.32705 15.4369V15.421C5.05431 15.7388 4.74885 15.9031 4.32339 15.9031C4.05611 15.9031 3.63609 15.8024 3.06881 15.6011C2.49606 15.4104 1.98878 15.2642 1.54695 15.1678C1.50331 15.1556 1.40513 15.1376 1.24694 15.1132C1.09421 15.0894 0.952388 15.065 0.826931 15.0406C0.712382 15.0168 0.58147 14.9808 0.439648 14.932C0.303281 14.8902 0.194187 14.8356 0.112367 14.7694C0.0370919 14.7026 0 14.6274 0 14.5432C0 14.4584 0.018546 14.3678 0.0556378 14.2714C0.0905478 14.2132 0.128731 14.1549 0.166913 14.1019C0.205096 14.0436 0.237824 13.9907 0.259643 13.9377C0.292371 13.89 0.31419 13.8423 0.336009 13.7894C0.357827 13.7417 0.379646 13.694 0.390556 13.6357C0.401465 13.5828 0.412374 13.5298 0.412374 13.4768C0.412374 13.4238 0.390556 13.2649 0.346918 12.9841C0.303281 12.7087 0.281462 12.5339 0.281462 12.4597C0.281462 12.2266 0.336009 12.0412 0.456012 11.9088C0.576015 11.7763 0.690563 11.7074 0.810567 11.7074H1.43786C1.48695 11.7074 1.56331 11.681 1.67786 11.6174C1.71604 11.5326 1.74877 11.4638 1.77059 11.4002C1.79786 11.3366 1.80877 11.2889 1.81968 11.2678C1.83059 11.236 1.8415 11.2042 1.85241 11.1777C1.87423 11.1406 1.9015 11.0982 1.93969 11.0559C1.89605 11.0029 1.87423 10.934 1.87423 10.8493C1.87423 10.791 1.87423 10.738 1.88514 10.7062C1.88514 10.5155 1.97787 10.2453 2.17424 9.89041L2.36515 9.55667C2.52334 9.2706 2.64334 9.0587 2.73062 8.8468C2.82335 8.6349 2.92153 8.31705 3.03062 7.89326C3.1179 7.52243 3.32518 7.15161 3.65246 6.78078L4.06156 6.30401C4.3452 5.98616 4.53066 5.72129 4.6343 5.50939C4.73794 5.29749 4.79249 5.03261 4.79249 4.82071C4.79249 4.71476 4.76521 4.39691 4.70521 3.86717C4.65067 3.33742 4.62339 2.80767 4.62339 2.33089C4.62339 1.96007 4.65612 1.6952 4.72703 1.43032C4.79794 1.16545 4.9234 0.900573 5.10886 0.688673C5.2725 0.476774 5.49069 0.264874 5.81797 0.158925C6.14525 0.0529748 6.52708 0 6.96345 0C7.12709 0 7.29073 0 7.45437 0.0529749C7.61802 0.0529749 7.8362 0.10595 8.10894 0.211899C8.32712 0.317849 8.54531 0.423799 8.70895 0.582724C8.92714 0.741648 9.09078 1.00652 9.25442 1.2714C9.36351 1.58925 9.47261 1.9071 9.52716 2.33089C9.5817 2.59577 9.5817 2.86064 9.63625 3.23147C9.63625 3.54932 9.6908 3.76122 9.6908 3.92014C9.74534 4.07906 9.74534 4.29096 9.79989 4.55584C9.85444 4.76774 9.90898 4.97964 10.0181 5.13856C10.1272 5.35046 10.2363 5.56236 10.3999 5.77426C10.5635 6.03913 10.7817 6.30401 10.9999 6.62186C11.4908 7.15161 11.8727 7.73433 12.0909 8.31705C12.3636 8.8468 12.5272 9.53548 12.5272 10.2718C12.5272 10.6374 12.4727 10.9923 12.3636 11.3366C12.4727 11.3366 12.5272 11.379 12.5818 11.4532C12.6363 11.5273 12.6909 11.6863 12.7454 11.9352L12.8 12.3273C12.8545 12.4438 12.9091 12.555 13.0727 12.6504C13.1818 12.7458 13.2909 12.8252 13.4545 12.8888C13.5636 12.9418 13.7273 13.0159 13.8364 13.1113C13.9455 13.2172 14 13.3285 14 13.445C14 13.6251 13.9455 13.7576 13.8364 13.8529C13.7273 13.9589 13.6182 14.033 13.4545 14.0807C13.3454 14.1337 13.1272 14.2396 12.8 14.389C12.5272 14.5458 12.2545 14.736 11.9818 14.9612L11.4363 15.412C11.2181 15.6186 10.9999 15.7669 10.8363 15.857C10.6726 15.9523 10.4545 16 10.2363 16L9.85444 15.9576C9.41806 15.8464 9.14533 15.6345 8.98169 15.3113C8.10894 15.2086 7.39983 15.1577 6.96345 15.1577" fill="black"/>
</svg>
